# xmcd
#
# Track frame offsets: 
#        150
#        22105
#        48508
#        67480
#        88623
#        109625
#        127100
#        147648
#        169235
#        191903
#        217188
#        237203
#
# Disc length: 3442 seconds
#
# Revision: 4
# Processed by: cddbd v1.5.1PL2 Copyright (c) Steve Scherf et al.
# Submitted via: ExactAudioCopy v0.95b2
#
DISCID=c50d700c
DTITLE=Thomas Anders - Different
DYEAR=1989
DGENRE=Pop
TTITLE0=Love Of My Own
TTITLE1=On My Way
TTITLE2=Turn On The Light
TTITLE3=Living On The Edge
TTITLE4=You Are My Life
TTITLE5=One Thing
TTITLE6=Soldier
TTITLE7=Someone New
TTITLE8=Close Your Eyes To Heaven
TTITLE9=Fool If You Think It's Over
TTITLE10=True Love
TTITLE11=You Are My Life [Classical Mix]
EXTD=02292-46188-26
EXTT0=
EXTT1=
EXTT2=
EXTT3=
EXTT4=
EXTT5=
EXTT6=
EXTT7=
EXTT8=
EXTT9=
EXTT10=
EXTT11=
PLAYORDER=
